# xmcd CD database file
#
# Track frame offsets:
#	150
#	23063
#	42256
#	63557
#	84106
#	108154
#	128683
#	158379
#	174862
#	191563
#	211492
#
# Disc length: 3106 seconds
#
# Revision: 0
# Processed by: cddbd v1.5.1PL2 Copyright (c) Steve Scherf et al.
# Submitted via: CDex 1.51
#
DISCID=7d0c200b
DTITLE=Jim Tomlinson - Brazilian Sketches
DYEAR=1900
DGENRE=Jazz
TTITLE0=Dreamer (With Stacey Kent)
TTITLE1=camin
TTITLE2=ligia
TTITLE3=So Nice
TTITLE4=So danco samba
TTITLE5=Once I loved
TTITLE6=I Concentrate On You
TTITLE7=Portrait In Black And White
TTITLE8=She's A Carioca
TTITLE9=The gentle rain
TTITLE10=No More Blues
EXTD=
EXTT0=
EXTT1=
EXTT2=
EXTT3=
EXTT4=
EXTT5=
EXTT6=
EXTT7=
EXTT8=
EXTT9=
EXTT10=
PLAYORDER=
